<svg width="412" height="71" viewBox="0 0 412 71" fill="none" xmlns="http://www.w3.org/2000/svg">
<g filter="url(#filter0_d_340_35)">
<path d="M25.7839 2H0.439941V2.96H6.19994V68.24H0.439941V69.2H20.5999V68.24H14.8399V35.408H20.7919C23.0959 35.408 25.7839 38 32.2159 46.832L40.1839 57.68C46.2319 65.936 52.4719 69.2 61.0159 69.2H64.4719V68.048C61.3999 68.048 56.5039 65.456 47.3839 52.976L40.0879 42.992C37.1119 38.96 33.8479 36.56 30.3919 35.312C40.7599 34.832 52.9519 32.048 52.9519 18.32C52.9519 3.056 37.5919 2 25.7839 2ZM14.8399 34.256V3.152H25.7839C36.6319 3.152 43.3519 9.2 43.3519 19.664C43.3519 31.28 35.7679 34.256 25.7839 34.256H14.8399Z" fill="white"/>
<path d="M74.5024 51.824V21.2H61.5424V22.16H66.2464V52.016C66.3424 64.592 71.7184 70.736 80.8384 70.736C89.2864 70.736 94.4704 65.36 97.8304 58.448V69.2H110.886V68.24H106.086V21.2H93.0304V22.16H97.8304V56.432C94.6624 63.056 90.0544 69.2 83.2384 69.2C77.7664 69.2 74.5024 64.976 74.5024 51.824Z" fill="white"/>
<path d="M129.55 70.736C141.262 70.736 148.846 64.208 148.846 54.704C148.846 36.656 121.006 44.144 121.006 29.264C121.006 24.272 124.078 20.816 131.086 20.816C134.83 20.816 137.23 21.776 139.342 23.312C143.086 25.904 143.854 28.688 144.91 34.352H145.966L144.142 23.792C141.358 21.68 136.846 19.664 130.222 19.664C117.838 19.664 112.75 26.672 112.75 34.064C112.75 51.632 140.974 44.432 140.974 60.944C140.974 65.84 138.478 69.584 129.646 69.584C122.926 69.584 119.086 67.376 117.166 65.456C115.246 63.344 114.478 60.56 113.422 55.952H112.366L114.19 66.512C117.934 68.912 123.31 70.736 129.55 70.736Z" fill="white"/>
<path d="M168.456 70.736C180.168 70.736 187.752 64.208 187.752 54.704C187.752 36.656 159.912 44.144 159.912 29.264C159.912 24.272 162.984 20.816 169.992 20.816C173.736 20.816 176.136 21.776 178.248 23.312C181.992 25.904 182.76 28.688 183.816 34.352H184.872L183.048 23.792C180.264 21.68 175.752 19.664 169.128 19.664C156.744 19.664 151.656 26.672 151.656 34.064C151.656 51.632 179.88 44.432 179.88 60.944C179.88 65.84 177.384 69.584 168.552 69.584C161.832 69.584 157.992 67.376 156.072 65.456C154.152 63.344 153.384 60.56 152.328 55.952H151.272L153.096 66.512C156.84 68.912 162.216 70.736 168.456 70.736Z" fill="white"/>
<path d="M215.427 70.736C224.835 70.736 234.147 66.128 236.643 57.584H235.395C233.571 62.864 227.331 69.296 216.675 69.296C201.315 69.296 200.739 56.048 200.739 43.856V42.896H236.451C236.451 28.592 227.715 19.664 215.715 19.664C201.123 19.664 191.139 31.088 191.139 45.2C191.139 59.408 200.643 70.736 215.427 70.736ZM200.739 41.936C201.123 27.152 206.307 21.104 213.987 21.104C220.899 21.104 226.947 28.592 226.947 41.936H200.739Z" fill="white"/>
<path d="M259.662 2H239.502V2.96H245.262V69.2H286.542L289.326 50H288.27C285.486 67.856 285.198 68.24 272.526 68.24H253.902V2.96H259.662V2Z" fill="white"/>
<path d="M300.542 70.736C304.574 70.736 307.55 67.568 307.55 63.824C307.55 59.792 304.574 56.816 300.542 56.816C296.606 56.816 293.63 59.792 293.63 63.824C293.63 67.568 296.606 70.736 300.542 70.736Z" fill="white"/>
<path d="M337.629 69.2002C346.727 69.2002 355.91 55.3312 355.91 55.3312V36.5938H358.894L359.764 40.1399L360 34.5013L355.91 35.761H339.215L339.329 41.0073L341.069 36.5938H348.397V51.084C348.397 59.4118 345.559 61.9101 339.549 61.9101C320.85 61.9101 319.348 45.5877 319.348 32.6797C319.348 19.7717 320.85 3.44936 337.629 3.44936C341.218 3.44936 343.733 4.19885 347.155 5.94768C344.317 6.36407 343.973 8.94566 343.973 11.9437C343.973 15.1915 346.755 16.7522 349.816 17.7731C353.065 18.8566 354.726 16.9633 355.91 14.5494C357.126 12.0686 356.958 10.4404 354.546 7.60962C349.872 2.1226 345.976 2.2002 336.877 2.2002C320.099 2.2002 311 15.8577 311 32.6797C311 49.7516 319.264 69.2002 337.629 69.2002Z" fill="#FCC563"/>
<path d="M386.629 69.2002C395.727 69.2002 404.91 55.3312 404.91 55.3312V36.5938H407.894L408.764 40.1399L409 34.5013L404.91 35.761H388.215L388.329 41.0073L390.069 36.5938H397.397V51.084C397.397 59.4118 394.559 61.9101 388.549 61.9101C369.85 61.9101 368.348 45.5877 368.348 32.6797C368.348 19.7717 369.85 3.44936 386.629 3.44936C390.218 3.44936 392.733 4.19885 396.155 5.94768C393.317 6.36407 392.973 8.94566 392.973 11.9437C392.973 15.1915 395.755 16.7522 398.816 17.7731C402.065 18.8566 403.726 16.9633 404.91 14.5494C406.126 12.0686 405.958 10.4404 403.546 7.60962C398.872 2.1226 394.976 2.2002 385.877 2.2002C369.099 2.2002 360 15.8577 360 32.6797C360 49.7516 368.264 69.2002 386.629 69.2002Z" fill="#FCC563"/>
</g>
<defs>
<filter id="filter0_d_340_35" x="0.439941" y="0" width="411.56" height="70.7358" filterUnits="userSpaceOnUse" color-interpolation-filters="sRGB">
<feFlood flood-opacity="0" result="BackgroundImageFix"/>
<feColorMatrix in="SourceAlpha" type="matrix" values="0 0 0 0 0 0 0 0 0 0 0 0 0 0 0 0 0 0 127 0" result="hardAlpha"/>
<feOffset dx="2" dy="-1"/>
<feGaussianBlur stdDeviation="0.5"/>
<feComposite in2="hardAlpha" operator="out"/>
<feColorMatrix type="matrix" values="0 0 0 0 0.219608 0 0 0 0 0.215686 0 0 0 0 0.384314 0 0 0 1 0"/>
<feBlend mode="normal" in2="BackgroundImageFix" result="effect1_dropShadow_340_35"/>
<feBlend mode="normal" in="SourceGraphic" in2="effect1_dropShadow_340_35" result="shape"/>
</filter>
</defs>
</svg>
