<svg width="189" height="265" viewBox="0 0 189 265" fill="none" xmlns="http://www.w3.org/2000/svg">
<path d="M49.5 93C41.1667 101.833 22.2 118.6 13 115M49.5 93C54 92.5 64.4 89.9 66 85.5M49.5 93C48.7904 91.9947 47.8291 90.4188 46.8839 88.5M12 115.5C15.8334 116.167 23.6 117.5 24 117.5C24.5 117.5 14.5 130 7.00004 128C8.16671 130.667 11.7 134.9 16.5 130.5M16.5 130.5C22 122.667 34.1 107.4 38.5 109M16.5 130.5C11.8334 133.333 2.80004 142.9 4.00004 158.5C3.83336 160.833 3 164.8 1 162C1.74138 163.297 2.82629 164.499 4.00004 164.641M23.1994 171.172C13.1994 165.572 15.6667 144.667 18.5 135C15.3 127.4 11.1667 142.833 9.5 151.5C8.24136 162.072 5.99267 164.883 4.00004 164.641M109 197C107.8 201.4 90.8333 197.167 82.5 194.5C80.9 195.7 81.8333 200.333 82.5 202.5C79 207.5 64.5 194.5 62.5 193C62.1 198.6 66.6667 203.333 69 205C67.4929 206.269 65.2399 206.248 62.5 205.29M109 198.5C108.667 195.667 107.8 189.8 107 189C106 188 131 192.5 131.5 189V181.5L140.5 179.5M167.5 141.5C167.333 147.333 165.4 160.7 159 167.5C163 167.5 166.5 165 166.5 163C165.667 169.333 162.1 182.7 154.5 185.5C157.667 185.833 164 187 164 189C160.5 188.667 152.2 190.1 147 198.5C142.5 203.167 132 212.2 126 211C130.667 211.5 140.4 211.6 142 208C140.333 210.667 131.7 215.5 110.5 213.5C119.833 213.5 137.8 214.8 135 220C131.167 217.167 120.6 212.9 109 218.5C106.167 220 99.7 224.1 98.5 226.5C99.5 229 100.9 234.5 98.5 236.5C97.5272 233.906 95.6762 230.605 93 228.012M167.5 141.5C175.5 143 190.7 142.2 187.5 127M167.5 141.5C166.323 140.106 164.439 138.621 162 137.702M167.5 141.5C168.3 124.3 177.582 122 182.122 123M61.7366 219.155C61.7366 223.155 70 225.5 74.5 226.5C82.5636 221.613 88.7987 223.941 93 228.012M61.7366 219.155C63.4033 217.349 65.3 211.523 62.5 205.29M61.7366 219.155C61.7366 221.679 51.9122 225.104 47 226.5C38.5486 228.057 28.1667 222.333 26.5 218.5C15.7 178.5 33.0497 166.833 42.7163 166M66 85.5C58.8 99.5 64.6667 108 68.5 110.5M66 85.5C67.8333 83.1667 70.8 77.6 68 74C70 75 73.3 80.1 70.5 92.5M70.5 92.5C70.692 91.6155 75.5 60.5 116 55C111.833 57.3333 103.8 63.5 105 69.5C110.167 67.3333 120.6 63.2 121 64C118.667 68.3333 114.6 78.7 117 85.5C117.833 86.3333 120.5 86.9 124.5 82.5C125 85.8333 121.5 94 103.5 100C112.167 97.1667 130.3 89.3 133.5 80.5C134.5 84.3333 135.9 92.8 133.5 96C137.333 93.3333 145.7 89.2 148.5 94M70.5 92.5C70.7564 91.2541 72.8278 81.8585 76.1665 73.5M83.5 78C81.1 82 82.5 68.6667 83.5 61.5C80.6722 63.7622 78.1872 68.4412 76.1665 73.5M148.5 94C141.849 94 127.304 98.0734 121 114.149M148.5 94C144 96.1667 134.5 101.5 132.5 105.5M140.5 156.5C141.5 159.5 146.5 155 147 153.5C147.705 151.149 144.415 148.223 140.5 145.735M140.5 145.735C137.753 143.991 134.699 142.462 132.5 141.5C141.7 142.7 141 140 139.5 138.5C127.5 138.5 122.167 129.5 121 125C125 125.5 128.5 114 128.5 112C128.5 114.4 123.167 115.333 120.5 115.5C120.66 115.041 120.827 114.59 121 114.149M140.5 145.735C143.29 142.725 145.973 140.619 148.5 139.212M62.5 205.29C56.4133 206.072 46.5211 201.876 43.5 183.347C42.3849 176.507 42.2059 167.715 43.5 156.5M4.00004 164.641C3.50003 166.486 3.9 169.341 9.5 166C6.16667 170.167 0.0999999 180.8 2.5 190C4.16667 187.167 7.9 182.1 9.5 184.5C11.1667 194 16.4918 211.134 23.6918 204.734M51.5 225.075C57.1667 225.242 63.9405 226 62.5 240C61.7283 247.5 60.1479 262.8 60 264C60 255.2 82 236.341 93 228.012M25.6876 180.288C23.8543 175.288 20.7 162.7 23.5 153.5M187 127C186.333 127.833 184.6 129.2 183 128C182.815 126.555 182.525 124.839 182.122 123M169.5 104C166.35 103.244 157.788 102.431 145.5 103.635M169.5 104C162.667 102.376 150.5 106.666 156.5 136.815M169.5 104C174.329 104.23 177.737 109.539 179.952 115.5M132.5 105.5C129 108.933 121.8 115.469 121 114.149M132.5 105.5C137.183 104.622 141.536 104.023 145.5 103.635M145.5 103.635C140.523 107.396 134.156 119.777 148.5 139.212M148.5 139.212C151.394 137.6 154.085 136.904 156.5 136.815M156.5 136.815C158.545 136.739 160.393 137.098 162 137.702M179.952 115.5C173.135 113.302 160 114.664 162 137.702M179.952 115.5C180.879 117.994 181.597 120.602 182.122 123M43.5 76C43.5 78.5082 44.0442 81.0935 44.8316 83.5M43.5 76C41.5 62.4 54 59.3333 60.5 59.5M43.5 76C43.0198 76.235 42.5177 76.4656 42 76.6869M34 67C34.8 63.8 31.6667 62.6667 30 62.5C25.0567 74.8582 28.386 78.562 33.5 78.6837M34 67C36.0936 63.814 40.2257 59.4846 45.5 57.5144M34 67C32.3333 69.9558 29.9 76.4307 33.5 78.6837M60.5 59.5C62.5442 60.8767 65.337 62.8549 68 64.9159M60.5 59.5C57.9202 57.7801 55.4019 56.8768 53 56.5763M76.1665 73.5C76.3659 72.6027 74.9873 70.932 72.8984 69M46.8839 88.5C50.1882 81.1667 60.0171 67 72.8984 69M46.8839 88.5C46.1478 87.0055 45.4214 85.3029 44.8316 83.5M72.8984 69C71.4978 67.7046 69.7778 66.2918 68 64.9159M68 64.9159C60.3877 63.2772 45.0968 64.7 44.8316 83.5M42 76.6869C40.5 72.1754 40.6 61.8373 53 56.5763M42 76.6869C41.1963 77.0304 40.3551 77.3513 39.5 77.6313M53 56.5763C50.3315 56.2425 47.8065 56.6529 45.5 57.5144M45.5 57.5144C41.6667 60.7638 35.1 69.3364 39.5 77.6313M39.5 77.6313C37.4726 78.2951 35.3673 78.7282 33.5 78.6837M38.5 213.5C38.5 213.009 38.9818 205.774 39.5315 198M39.5315 198C40.1019 189.935 40.7454 181.291 41 179H39.5L39.5315 198Z" stroke="white" stroke-opacity="0.4"/>
<path d="M96.0001 137.5C82 134.5 80.8334 147.5 81.5001 154C81.5001 169.2 91.8387 171.061 99.5001 167C104.371 164.418 103.667 155.167 103.5 148.5C103.1 139.7 100 138.357 96.0001 137.5Z" stroke="white" stroke-opacity="0.4"/>
<path d="M86.7716 141.986C84.6316 145.489 87.2053 150.922 91.2716 151.486C95.5662 152.081 102.772 149.986 97.7718 142.486C96.105 140.486 89.0132 138.316 86.7716 141.986Z" fill="#6D6CA3"/>
<path d="M53.5 116C56 122 56.1218 125.357 54.5 131C52.0577 139.497 38 144.5 38 146.5C37.0918 143.5 35.5 139.905 35.5 135.5C35.5 121.5 48.1667 115 53.5 116Z" stroke="white" stroke-opacity="0.4"/>
<path fill-rule="evenodd" clip-rule="evenodd" d="M55.3156 121.081C54.0091 119.794 52.216 119 50.2375 119C46.2403 119 43 122.24 43 126.237C43 130.235 46.2403 133.475 50.2375 133.475C51.7939 133.475 53.2355 132.984 54.4158 132.148C56.2688 128.055 56.1597 124.135 55.3156 121.081Z" fill="#6D6CA3"/>
<path d="M64.5496 73.1714C61.383 64.0047 60.9496 44.1714 84.5496 38.1714M99.5496 38.1714C108.05 39.5047 124.05 47.2714 120.05 67.6714M71.5496 82.1714C78.0496 87.8381 95.8496 94.9714 115.05 78.1714" stroke="#FCC563" stroke-opacity="0.56" stroke-width="2" stroke-linecap="round" stroke-linejoin="round"/>
<path d="M73.0495 51.6715C76.3828 46.3382 87.4495 37.6715 105.05 45.6715M112.05 51.6715C115.55 57.3381 118.45 71.0714 102.05 80.6714M91.5495 82.6714C83.0495 82.1714 66.6495 76.8714 69.0495 59.6714" stroke="#FCC563" stroke-opacity="0.56" stroke-linecap="round" stroke-linejoin="round"/>
<circle cx="91.5496" cy="46.6714" r="6" stroke="#FCC563" stroke-opacity="0.56"/>
<path d="M95.5496 38.1715C92.7496 36.1715 89.7163 37.3381 88.5496 38.1715L86.5496 38.1714C87.2163 37.5047 88.5496 35.8714 88.5496 34.6714C88.8829 32.1714 88.9496 27.1714 86.5496 27.1714L90.0496 22.6714C93.3829 22.8381 99.7496 20.9714 98.5496 12.1714C97.5496 8.50474 92.9496 3.97141 82.5496 15.1714L76.0496 9.17145C75.5496 9.33812 74.7496 9.27144 75.5496 7.67145C77.2162 7.67145 80.8496 7.47145 82.0496 6.67145C86.0495 2.5048 95.9496 -3.42845 103.55 6.17145C106.238 9.83808 109.303 18.9713 100.05 26.1713C98.2162 27.338 94.6495 30.2714 95.0496 32.6714C95.0496 35.6714 96.5496 36.6714 96.5496 37.1714C97.3496 39.1714 96.2163 38.6714 95.5496 38.1715Z" stroke="#FCC563" stroke-opacity="0.56" stroke-linecap="round" stroke-linejoin="round"/>
</svg>
