<svg width="33" height="54" viewBox="0 0 33 54" fill="none" xmlns="http://www.w3.org/2000/svg">
<circle cx="17.3398" cy="46.6714" r="6" fill="#A0946E" stroke="#A0946E"/>
<path d="M21.3394 38.1715C18.5394 36.1715 15.5061 37.3381 14.3394 38.1715L12.3394 38.1714C13.0061 37.5047 14.3394 35.8714 14.3394 34.6714C14.6727 32.1714 14.7394 27.1714 12.3394 27.1714L15.8394 22.6714C19.1727 22.8381 25.5394 20.9714 24.3394 12.1714C23.3394 8.50474 18.7394 3.97141 8.33938 15.1714L1.83938 9.17145C1.33938 9.33812 0.539394 9.27144 1.33938 7.67145C3.00604 7.67145 6.63935 7.47145 7.83935 6.67145C11.8393 2.5048 21.7394 -3.42845 29.3394 6.17145C32.0281 9.83808 35.0925 18.9713 25.8394 26.1713C24.006 27.338 20.4393 30.2714 20.8394 32.6714C20.8394 35.6714 22.3394 36.6714 22.3394 37.1714C23.1394 39.1714 22.006 38.6714 21.3394 38.1715Z" fill="#A0946E" stroke="#A0946E" stroke-linecap="round" stroke-linejoin="round"/>
</svg>
